<?xml version="1.0" encoding="utf-8"?>
<!-- Generator: Adobe Illustrator 24.0.1, SVG Export Plug-In . SVG Version: 6.00 Build 0)  -->
<svg version="1.1" id="Capa_1" xmlns="http://www.w3.org/2000/svg" xmlns:xlink="http://www.w3.org/1999/xlink" x="0px" y="0px"
	 viewBox="0 0 184.6 97.2" style="enable-background:new 0 0 184.6 97.2;" xml:space="preserve">
<style type="text/css">
	.st0{fill:#F5F7F8;}
	.st1{fill:#D9E7EB;}
	.st2{fill:#FB4A59;}
	.st3{fill:#F82F40;}
	.st4{enable-background:new    ;}
	.st5{fill:#DF0B17;}
</style>
<g>
	<g>
		<g>
			<path d="M21.8,50.2c0,1.6,0.6,3,1.7,4.2s2.5,1.7,4.2,1.7h11.4c1,0,1.8,0.3,2.5,1.1c0.7,0.7,1.1,1.6,1.1,2.5v0.1
				c0,1-0.3,1.8-1.1,2.5c-0.7,0.7-1.6,1.1-2.5,1.1H27.6c-3.6,0-6.7-1.3-9.3-3.8c-2.6-2.6-3.9-5.7-3.9-9.3V8c0-1,0.4-1.8,1.1-2.6
				c0.7-0.7,1.5-1,2.5-1h0.1c1,0,1.8,0.3,2.5,1C21.4,6.1,21.7,7,21.7,8L21.8,50.2L21.8,50.2z"/>
			<path d="M134.2,53.6l0.1-0.2l14.2-46.6c0.6-1.6,1.7-2.4,3.4-2.4h0.3c1.2,0,2.2,0.5,2.9,1.5c0.7,1,0.9,2.1,0.5,3.3l-16.1,50.4
				c-1,2.5-2.9,3.8-5.6,3.8c-2.7,0-4.6-1.3-5.6-3.8L112.2,9.1c-0.4-1.2-0.3-2.3,0.4-3.3c0.7-1,1.7-1.5,2.9-1.5h0.3
				c1.7,0,2.8,0.8,3.4,2.4l14.2,46.6l0.1,0.2c0.1,0.2,0.2,0.2,0.3,0.2C134,53.8,134.1,53.7,134.2,53.6z"/>
			<path d="M165.8,4.4c1,0,1.8,0.3,2.5,1c0.7,0.7,1.1,1.6,1.1,2.6v51.8c0,1-0.4,1.8-1.1,2.5c-0.7,0.7-1.5,1.1-2.5,1.1h-0.1
				c-1,0-1.8-0.3-2.5-1.1c-0.7-0.7-1.1-1.5-1.1-2.5V8c0-1,0.4-1.8,1.1-2.6c0.7-0.7,1.5-1,2.5-1H165.8z"/>
		</g>
		<g>
			<path class="st0" d="M76.9,3.7C60.4,3.9,47.3,17.4,47.5,33.9c0.1,4.8,1.3,9.4,3.4,13.4L48,61c-0.2,1.1,0.7,2,1.8,1.8l13.7-2.9
				c4,2.1,8.6,3.3,13.4,3.4c16.5,0.2,29.9-12.9,30.1-29.4C107.2,17.1,93.6,3.5,76.9,3.7L76.9,3.7z"/>
			<path class="st1" d="M107,33.5c0,16.4-13,29.5-29.4,29.7c-1.4,0-2.7-0.1-4-0.2c14.9-1.6,26.4-14.2,26.4-29.5
				c0-15.3-11.6-27.9-26.4-29.5c1.2-0.2,2.4-0.2,3.7-0.2C93.7,3.7,107,17,107,33.5L107,33.5z"/>
			<path class="st1" d="M77.8,27.7l-0.5,0.5l-0.5-0.5c-3.7-3.7-9.6-3.7-13.2,0c-3.7,3.7-3.7,9.6,0,13.2l12.5,12.5
				c0.7,0.7,1.8,0.7,2.4,0L91,40.9c3.7-3.7,3.7-9.6,0-13.2C87.4,24,81.4,24,77.8,27.7L77.8,27.7z"/>
			<path class="st2" d="M77.8,23.4l-0.5,0.5l-0.5-0.5c-3.7-3.7-9.6-3.7-13.2,0c-3.7,3.7-3.7,9.6,0,13.2l12.5,12.5
				c0.7,0.7,1.8,0.7,2.4,0L91,36.6c3.7-3.7,3.7-9.6,0-13.2C87.4,19.7,81.4,19.7,77.8,23.4L77.8,23.4z"/>
			<g>
				<path class="st3" d="M91,36.6L78.5,49.1c-0.7,0.7-1.8,0.7-2.4,0l-2.7-2.7c0.6,0.2,1.2,0.1,1.7-0.4l11.6-11.6
					c3.4-3.4,3.4-8.9,0-12.3c-0.7-0.7-1.4-1.2-2.2-1.6c2.4,0,4.8,0.9,6.6,2.7C94.7,27,94.7,33,91,36.6L91,36.6z"/>
				<g>
					<path d="M100.4,13.4c-0.3-0.4-0.9-0.4-1.3-0.1c-0.4,0.3-0.4,0.9-0.1,1.3c4.6,5.3,7.1,12.2,7.1,19.3c-0.1,7.7-3.2,15-8.7,20.3
						c-5.5,5.4-12.8,8.3-20.6,8.2c-4.6-0.1-9-1.2-13-3.3c-0.2-0.1-0.4-0.1-0.6-0.1l-13.7,2.9c-0.3,0.1-0.5-0.1-0.5-0.2
						c-0.1-0.1-0.2-0.3-0.2-0.5l2.9-13.7c0-0.2,0-0.4-0.1-0.6c-2.1-4-3.2-8.4-3.3-13c-0.1-7.7,2.8-15,8.2-20.5
						C62,7.8,69.2,4.7,76.9,4.6c0.1,0,0.2,0,0.3,0c6.9,0,13.6,2.5,18.8,7c0.4,0.3,0.9,0.3,1.3-0.1c0.3-0.4,0.3-0.9-0.1-1.3
						c-5.7-4.9-12.9-7.5-20.3-7.4C68.7,2.9,61,6.2,55.3,12.1c-5.7,5.9-8.8,13.6-8.7,21.8c0.1,4.8,1.2,9.3,3.3,13.5l-2.8,13.4
						c-0.2,0.8,0.1,1.6,0.7,2.2c0.6,0.6,1.4,0.8,2.2,0.7l13.4-2.8c4.2,2.2,8.8,3.3,13.5,3.3c0.1,0,0.3,0,0.4,0
						c8.1,0,15.7-3.1,21.4-8.7c5.8-5.7,9.1-13.4,9.2-21.6C108,26.3,105.3,19.1,100.4,13.4L100.4,13.4z"/>
					<path d="M77.3,65c-0.1,0-0.3,0-0.4,0c-4.8-0.1-9.4-1.2-13.6-3.3l-13.1,2.8c-1.1,0.2-2.2-0.1-3-0.9c-0.8-0.8-1.1-1.9-0.9-3
						l2.8-13.1c-2.1-4.3-3.2-8.8-3.3-13.6c-0.1-8.5,3.1-16.4,8.9-22.4c5.9-6,13.7-9.4,22.2-9.5C84.6,1.9,92,4.6,97.8,9.6
						c0.3,0.3,0.6,0.7,0.6,1.2s-0.1,0.9-0.4,1.3s-0.7,0.6-1.2,0.6c-0.5,0-0.9-0.1-1.3-0.4C90.5,7.9,84,5.5,77.3,5.5h-0.3
						c-7.5,0.1-14.5,3.1-19.7,8.4c-5.2,5.3-8,12.4-7.9,19.9c0.1,4.5,1.1,8.7,3.2,12.6c0.2,0.4,0.2,0.8,0.2,1.2L49.8,61l13.3-2.8
						c0.4-0.1,0.8,0,1.2,0.2c3.9,2.1,8.2,3.1,12.6,3.2c7.5,0.1,14.6-2.7,19.9-7.9s8.3-12.2,8.4-19.7c0.1-6.9-2.3-13.5-6.8-18.7
						c-0.6-0.7-0.6-1.8,0.2-2.5c0.7-0.6,1.8-0.6,2.5,0.2l0,0c5.1,5.8,7.8,13.3,7.7,21c-0.1,8.4-3.5,16.3-9.5,22.2
						C93.4,61.8,85.6,65,77.3,65z M63.5,59.9l0.3,0.1c4.1,2.1,8.5,3.2,13.2,3.3c0.1,0,0.3,0,0.4,0c7.8,0,15.2-3,20.8-8.4
						c5.7-5.5,8.9-13,9-21c0.1-7.3-2.5-14.4-7.3-19.9l0,0c0,0,0,0-0.1,0c0,0,0,0,0,0.1c4.8,5.5,7.4,12.5,7.3,19.8
						c-0.1,8-3.3,15.4-8.9,20.9c-5.7,5.5-13.2,8.5-21.2,8.4C72.2,63.1,67.6,62,63.5,59.9l-13.7,2.8c-0.5,0.1-1,0-1.3-0.4
						C48.1,62,48,61.5,48.1,61L51,47.3c-2.2-4.2-3.3-8.7-3.4-13.4c-0.1-8,2.9-15.5,8.4-21.2c5.5-5.7,12.9-8.8,20.9-8.9h0.4
						c7.1,0,14,2.6,19.4,7.2h0.1l0,0v-0.1c-5.5-4.7-12.5-7.3-19.8-7.2c-8,0.1-15.4,3.3-21,9c-5.5,5.7-8.5,13.2-8.4,21.2
						c0.1,4.6,1.2,9.1,3.3,13.2l0.1,0.3L48,61c-0.1,0.5,0,1,0.4,1.4s0.9,0.5,1.4,0.4L63.5,59.9z"/>
				</g>
			</g>
			<path d="M85.2,41.1c-0.3,0.3-0.3,0.9,0,1.3c0.2,0.2,0.4,0.3,0.6,0.3c0.2,0,0.5-0.1,0.6-0.3l5.2-5.2c1.9-1.9,3-4.5,3-7.3
				s-1.1-5.3-3-7.3c-1.9-1.9-4.5-3-7.3-3c-2.7,0-5.2,1-7.1,2.9c-1.2-1.2-2.8-2.1-4.4-2.5c-0.5-0.1-1,0.1-1.1,0.6s0.2,1,0.6,1.1
				c1.4,0.4,2.7,1.1,3.7,2.2l0.5,0.5c0.3,0.4,0.9,0.4,1.3,0l0.5-0.5c1.6-1.6,3.7-2.5,6-2.5s4.4,0.9,6,2.5s2.5,3.7,2.5,6
				s-0.9,4.4-2.5,6L85.2,41.1z"/>
			<path d="M68.5,21.7c0.5-0.1,0.8-0.6,0.7-1.1c-0.1-0.5-0.6-0.8-1.1-0.7c-2,0.4-3.8,1.4-5.2,2.8c-1.9,1.9-3,4.5-3,7.3
				s1.1,5.3,3,7.3l12.5,12.5c0.5,0.5,1.2,0.8,1.9,0.8s1.4-0.3,1.9-0.8l4.3-4.3c0.3-0.3,0.3-0.9,0-1.3c-0.3-0.3-0.9-0.3-1.3,0
				l-4.3,4.3c-0.2,0.2-0.4,0.2-0.6,0.2c-0.2,0-0.4-0.1-0.6-0.2L64.2,36c-1.6-1.6-2.5-3.7-2.5-6s0.9-4.4,2.5-6
				C65.3,22.8,66.8,22,68.5,21.7L68.5,21.7z"/>
			<path d="M95.4,18.8c0-0.5-0.4-0.9-0.9-0.9h-0.5v-0.5c0-0.5-0.4-0.9-0.9-0.9s-0.9,0.4-0.9,0.9v0.5h-0.5c-0.5,0-0.9,0.4-0.9,0.9
				s0.4,0.9,0.9,0.9h0.5v0.5c0,0.5,0.4,0.9,0.9,0.9s0.9-0.4,0.9-0.9v-0.5h0.5C95,19.7,95.4,19.3,95.4,18.8L95.4,18.8z"/>
		</g>
	</g>
	<g>
		<g class="st4">
			<path d="M14.4,71.8h5c2.4,0,4.1,0.4,5.1,1.1c1.1,0.7,1.6,1.8,1.6,3.3c0,1.1-0.3,1.9-0.9,2.6c-0.6,0.7-1.4,1.1-2.6,1.3v0.1
				c2.7,0.5,4,1.9,4,4.3c0,1.6-0.5,2.8-1.6,3.7c-1.1,0.9-2.6,1.3-4.5,1.3h-6.2V71.8z M16.4,79.4h3.4c1.5,0,2.5-0.2,3.1-0.7
				c0.6-0.5,1-1.2,1-2.3c0-1-0.4-1.7-1.1-2.2c-0.7-0.4-1.8-0.7-3.4-0.7h-3V79.4z M16.4,81.1v6.7h3.7c1.4,0,2.5-0.3,3.2-0.8
				c0.7-0.6,1.1-1.4,1.1-2.6c0-1.1-0.4-1.9-1.1-2.4s-1.9-0.8-3.4-0.8H16.4z"/>
			<path d="M28.1,76.2h2.2l2.9,7.6c0.6,1.7,1,3,1.2,3.8h0.1c0.1-0.4,0.3-1.1,0.7-2.1c0.3-1,1.4-4.1,3.3-9.2h2.2l-5.7,15.2
				c-0.6,1.5-1.2,2.6-2,3.2c-0.8,0.6-1.7,0.9-2.8,0.9c-0.6,0-1.2-0.1-1.8-0.2v-1.6c0.4,0.1,0.9,0.1,1.5,0.1c1.4,0,2.4-0.8,3-2.3
				l0.7-1.9L28.1,76.2z"/>
		</g>
		<g class="st4">
			<path class="st5" d="M50.8,71.8h5c2.4,0,4.1,0.4,5.1,1.1c1.1,0.7,1.6,1.8,1.6,3.3c0,1.1-0.3,1.9-0.9,2.6
				c-0.6,0.7-1.4,1.1-2.6,1.3v0.1c2.7,0.5,4,1.9,4,4.3c0,1.6-0.5,2.8-1.6,3.7c-1.1,0.9-2.6,1.3-4.5,1.3h-6.2V71.8z M52.9,79.4h3.4
				c1.5,0,2.5-0.2,3.1-0.7c0.6-0.5,1-1.2,1-2.3c0-1-0.4-1.7-1.1-2.2c-0.7-0.4-1.8-0.7-3.4-0.7h-3V79.4z M52.9,81.1v6.7h3.7
				c1.4,0,2.5-0.3,3.2-0.8c0.7-0.6,1.1-1.4,1.1-2.6c0-1.1-0.4-1.9-1.1-2.4s-1.9-0.8-3.4-0.8H52.9z"/>
			<path class="st5" d="M78.1,82.9c0,2.2-0.5,3.9-1.6,5.1c-1.1,1.2-2.6,1.8-4.5,1.8c-1.2,0-2.2-0.3-3.2-0.8
				c-0.9-0.6-1.6-1.4-2.1-2.4c-0.5-1-0.8-2.3-0.8-3.7c0-2.2,0.5-3.9,1.6-5.1c1.1-1.2,2.6-1.8,4.5-1.8c1.9,0,3.3,0.6,4.4,1.9
				C77.6,79.1,78.1,80.8,78.1,82.9z M68,82.9c0,1.7,0.3,3,1,3.9c0.7,0.9,1.7,1.3,3,1.3s2.3-0.4,3-1.3c0.7-0.9,1-2.2,1-3.9
				c0-1.7-0.3-3-1-3.9c-0.7-0.9-1.7-1.3-3-1.3c-1.3,0-2.3,0.4-3,1.3C68.3,79.9,68,81.2,68,82.9z"/>
			<path class="st5" d="M86,88.1c0.4,0,0.7,0,1-0.1c0.3-0.1,0.6-0.1,0.8-0.2v1.5c-0.2,0.1-0.5,0.2-1,0.3c-0.4,0.1-0.8,0.1-1.1,0.1
				c-2.6,0-3.9-1.4-3.9-4.1v-7.9h-1.9v-1l1.9-0.8l0.9-2.8h1.2v3.1h3.9v1.6h-3.9v7.8c0,0.8,0.2,1.4,0.6,1.8
				C84.8,87.9,85.3,88.1,86,88.1z"/>
			<path class="st5" d="M99.1,85.9c0,1.2-0.5,2.2-1.4,2.9c-0.9,0.7-2.2,1-3.9,1c-1.8,0-3.1-0.3-4.1-0.8v-1.9
				c0.6,0.3,1.3,0.6,2.1,0.8c0.7,0.2,1.4,0.3,2.1,0.3c1.1,0,1.9-0.2,2.4-0.5c0.6-0.3,0.9-0.8,0.9-1.5c0-0.5-0.2-1-0.7-1.3
				s-1.3-0.8-2.6-1.3c-1.2-0.5-2.1-0.9-2.6-1.2c-0.5-0.3-0.9-0.7-1.2-1.2s-0.4-1-0.4-1.6c0-1.1,0.4-1.9,1.3-2.6
				c0.9-0.6,2.1-0.9,3.6-0.9c1.4,0,2.8,0.3,4.2,0.9l-0.7,1.6c-1.3-0.6-2.5-0.8-3.6-0.8c-1,0-1.7,0.2-2.2,0.5s-0.7,0.7-0.7,1.2
				c0,0.4,0.1,0.7,0.3,0.9c0.2,0.3,0.5,0.5,0.9,0.7c0.4,0.2,1.2,0.6,2.3,1c1.6,0.6,2.6,1.2,3.2,1.7C98.8,84.3,99.1,85,99.1,85.9z"/>
		</g>
		<g class="st4">
			<path d="M104.5,89.6h-2V70.6h2V89.6z"/>
			<path d="M120.3,82.9c0,2.2-0.5,3.9-1.6,5.1c-1.1,1.2-2.6,1.8-4.5,1.8c-1.2,0-2.2-0.3-3.2-0.8s-1.6-1.4-2.1-2.4
				c-0.5-1-0.8-2.3-0.8-3.7c0-2.2,0.5-3.9,1.6-5.1s2.6-1.8,4.5-1.8c1.9,0,3.3,0.6,4.4,1.9C119.7,79.1,120.3,80.8,120.3,82.9z
				 M110.1,82.9c0,1.7,0.3,3,1,3.9s1.7,1.3,3,1.3s2.3-0.4,3-1.3s1-2.2,1-3.9c0-1.7-0.3-3-1-3.9c-0.7-0.9-1.7-1.3-3-1.3
				c-1.3,0-2.3,0.4-3,1.3C110.4,79.9,110.1,81.2,110.1,82.9z"/>
			<path d="M126.7,89.6l-5.1-13.3h2.2l2.9,7.9c0.6,1.8,1,3,1.1,3.6h0.1c0.1-0.4,0.4-1.3,0.8-2.7c0.5-1.3,1.5-4.3,3.2-8.8h2.2
				l-5.1,13.3H126.7z"/>
			<path d="M141.9,89.8c-2,0-3.5-0.6-4.7-1.8c-1.1-1.2-1.7-2.9-1.7-5c0-2.1,0.5-3.9,1.6-5.1c1.1-1.3,2.5-1.9,4.3-1.9
				c1.7,0,3,0.5,4,1.6s1.5,2.5,1.5,4.3v1.3h-9.2c0,1.6,0.4,2.8,1.2,3.6s1.8,1.2,3.2,1.2c1.4,0,2.9-0.3,4.3-0.9v1.8
				c-0.7,0.3-1.4,0.5-2,0.7C143.6,89.7,142.8,89.8,141.9,89.8z M141.4,77.7c-1.1,0-1.9,0.3-2.6,1c-0.6,0.7-1,1.7-1.1,2.9h7
				c0-1.3-0.3-2.2-0.9-2.9S142.4,77.7,141.4,77.7z"/>
			<path d="M156.3,76c0.6,0,1.1,0,1.6,0.1l-0.3,1.9c-0.6-0.1-1-0.2-1.5-0.2c-1.1,0-2,0.4-2.8,1.3c-0.8,0.9-1.1,2-1.1,3.3v7.1h-2
				V76.2h1.7l0.2,2.5h0.1c0.5-0.9,1.1-1.5,1.8-2C154.7,76.2,155.5,76,156.3,76z"/>
			<path d="M169,85.9c0,1.2-0.5,2.2-1.4,2.9c-0.9,0.7-2.2,1-3.9,1c-1.8,0-3.1-0.3-4.1-0.8v-1.9c0.6,0.3,1.3,0.6,2.1,0.8
				c0.7,0.2,1.4,0.3,2.1,0.3c1.1,0,1.9-0.2,2.4-0.5c0.6-0.3,0.9-0.8,0.9-1.5c0-0.5-0.2-1-0.7-1.3s-1.3-0.8-2.6-1.3
				c-1.2-0.5-2.1-0.9-2.6-1.2s-0.9-0.7-1.2-1.2c-0.3-0.4-0.4-1-0.4-1.6c0-1.1,0.4-1.9,1.3-2.6c0.9-0.6,2.1-0.9,3.6-0.9
				c1.4,0,2.8,0.3,4.2,0.9l-0.7,1.6c-1.3-0.6-2.5-0.8-3.6-0.8c-1,0-1.7,0.2-2.2,0.5s-0.7,0.7-0.7,1.2c0,0.4,0.1,0.7,0.3,0.9
				s0.5,0.5,0.9,0.7c0.4,0.2,1.2,0.6,2.3,1c1.6,0.6,2.6,1.2,3.2,1.7C168.7,84.3,169,85,169,85.9z"/>
		</g>
	</g>
</g>
</svg>
